<svg viewBox="0 0 701 1064" fill="none" xmlns="http://www.w3.org/2000/svg">
<path opacity="0.2" fill-rule="evenodd" clip-rule="evenodd" d="M269.418 784.752C195.501 826.558 160.839 925.399 77.7553 942.964C-16.7639 962.946 -140.198 960.598 -198.7 883.717C-258.692 804.876 -196.313 692.687 -187.794 593.984C-182.146 528.552 -180.841 465.528 -157.311 404.212C-132.51 339.581 -104.964 273.905 -49.2161 232.862C10.4768 188.915 85.3455 181.067 158.845 171.451C256.015 158.737 378.665 96.5661 445.627 168.119C514.424 241.633 419.571 362.408 431.149 462.424C440.953 547.119 545.442 623.867 507.205 700.073C468.525 777.162 344.491 742.292 269.418 784.752Z" fill="url(#paint0_linear)"/>
<defs>
<linearGradient id="paint0_linear" x1="302.223" y1="834.066" x2="-46.6427" y2="229.812" gradientUnits="userSpaceOnUse">
<stop stop-color="#FE5F55" stop-opacity="0"/>
<stop offset="1" stop-color="#577399"/>
</linearGradient>
</defs>
</svg>
