<svg viewBox="0 0 611 1018" fill="none" xmlns="http://www.w3.org/2000/svg">
<path opacity="0.2" fill-rule="evenodd" clip-rule="evenodd" d="M530.054 4.26827C638.908 13.9271 740.387 55.1347 828.063 120.384C914.909 185.017 995.874 265.675 1022.37 370.657C1048.05 472.404 992.609 570.937 967.481 672.822C939.811 785.016 966.453 935.42 868.119 996.079C768.579 1057.48 642.834 973.612 530.054 942.66C448.543 920.29 369.905 894.754 304.371 841.36C241.812 790.392 211.582 716.42 168.566 648.142C107.529 551.258 -4.26491 472.863 0.125583 358.432C4.72424 238.576 91.2771 130.491 190.984 63.8549C288.793 -1.51339 412.881 -6.12874 530.054 4.26827Z" fill="url(#paint0_linear)"/>
<defs>
<linearGradient id="paint0_linear" x1="514.5" y1="0" x2="514.5" y2="1018" gradientUnits="userSpaceOnUse">
<stop stop-color="#FE5F55" stop-opacity="0"/>
<stop offset="1" stop-color="#577399"/>
</linearGradient>
</defs>
</svg>
