<svg width="36" height="36" viewBox="0 0 36 36" fill="none" xmlns="http://www.w3.org/2000/svg">
<path d="M10.14 7.25998L7.44 4.57498L5.325 6.68998L8.01 9.37498L10.14 7.25998ZM1.5 15.75H6V18.75H1.5V15.75ZM16.5 0.824982H19.5V5.24998H16.5V0.824982ZM28.56 4.56748L30.672 6.67798L27.987 9.36298L25.8765 7.25098L28.56 4.56748ZM25.86 27.24L28.545 29.94L30.66 27.825L27.96 25.14L25.86 27.24ZM30 15.75H34.5V18.75H30V15.75ZM18 8.24998C13.035 8.24998 9 12.285 9 17.25C9 22.215 13.035 26.25 18 26.25C22.965 26.25 27 22.215 27 17.25C27 12.285 22.965 8.24998 18 8.24998ZM18 23.25C14.685 23.25 12 20.565 12 17.25C12 13.935 14.685 11.25 18 11.25C21.315 11.25 24 13.935 24 17.25C24 20.565 21.315 23.25 18 23.25ZM16.5 29.25H19.5V33.675H16.5V29.25ZM5.325 27.81L7.44 29.925L10.125 27.225L8.01 25.11L5.325 27.81Z" fill="#382E35"/>
</svg>
